<?xml version="1.0" encoding="utf-8"?>
<!-- Generator: Adobe Illustrator 24.0.1, SVG Export Plug-In . SVG Version: 6.00 Build 0)  -->
<svg version="1.1" id="Layer_1" xmlns="http://www.w3.org/2000/svg" xmlns:xlink="http://www.w3.org/1999/xlink" x="0px" y="0px"
	 viewBox="0 0 20 19" style="enable-background:new 0 0 20 19;" xml:space="preserve">
<style type="text/css">
	.st0{fill:#FFFFFF;}
</style>
<g>
	<path class="st0" d="M18.9,4.2c-0.4-0.5-1-0.7-1.6-0.7H4.5L4.1,1.9c-0.2-0.9-1-1.5-2-1.5H0c-0.4,0.1-0.7,0.4-0.7,0.7
		S-0.4,1.7,0,1.7h2.1c0.3,0,0.6,0.2,0.7,0.5L5.3,12c0.2,0.9,1,1.5,2,1.5h8.4c0.9,0,1.7-0.6,2-1.5l1.6-6.2
		C19.4,5.2,19.3,4.6,18.9,4.2L18.9,4.2z M18,5.5l-1.6,6.2c-0.1,0.3-0.4,0.5-0.7,0.5H7.3c-0.3,0-0.6-0.2-0.7-0.5l-1.8-7h12.5
		c0.2,0,0.4,0.1,0.5,0.3C18,5.1,18,5.3,18,5.5L18,5.5z"/>
	<path class="st0" d="M7.7,14.3c-1.2,0-2.2,0.9-2.2,2.1s1,2.1,2.2,2.1s2.2-0.9,2.2-2.1S8.9,14.3,7.7,14.3L7.7,14.3z M7.7,17.3
		c-0.5,0-0.9-0.4-0.9-0.8c0-0.5,0.4-0.8,0.9-0.8s0.9,0.4,0.9,0.8C8.6,16.9,8.2,17.3,7.7,17.3z"/>
	<path class="st0" d="M15,14.3c-1.2,0-2.2,0.9-2.2,2.1c0,1.1,1,2.1,2.2,2.1s2.2-0.9,2.2-2.1S16.2,14.3,15,14.3z M15,17.3
		c-0.5,0-0.9-0.4-0.9-0.8c0-0.5,0.4-0.8,0.9-0.8c0.5,0,0.9,0.4,0.9,0.8C15.9,16.9,15.5,17.3,15,17.3z"/>
</g>
</svg>
